<svg width="64" height="64" viewBox="0 0 64 64" fill="none" xmlns="http://www.w3.org/2000/svg">
<path fill-rule="evenodd" clip-rule="evenodd" d="M64 32C64 14.3282 49.6718 0 32 0C14.3282 0 0 14.3282 0 32C0 47.9707 11.7003 61.2099 27.0005 63.6132V41.2522H18.8733V32H27.0005V24.9483C27.0005 16.9291 31.7795 12.4966 39.0876 12.4966C42.5886 12.4966 46.2517 13.122 46.2517 13.122V20.9973H42.2151C38.2416 20.9973 36.9995 23.4633 36.9995 25.9968V31.9998H45.8735L44.456 41.252H36.9993V63.6129C52.2995 61.2141 63.9998 47.9749 63.9998 31.9998L64 32Z" fill="#1977F3"/>
<path fill-rule="evenodd" clip-rule="evenodd" d="M44.4562 41.252L45.8738 31.9998H36.9998V25.9968C36.9998 23.4678 38.2372 20.9973 42.2153 20.9973H46.252V13.1221C46.252 13.1221 42.5891 12.4966 39.0879 12.4966C31.7798 12.4966 27.0007 16.9247 27.0007 24.9484V32H18.8735V41.2522H27.0007V63.6132C28.6297 63.8694 30.2992 64 32.0003 64C33.7013 64 35.3708 63.8649 36.9998 63.6132V41.2522H44.4565L44.4562 41.252Z" fill="#FEFEFE"/>
</svg>
