<svg width="64" height="64" viewBox="0 0 64 64" fill="none" xmlns="http://www.w3.org/2000/svg">
<rect width="64" height="64" rx="32" fill="#00AFF0"/>
<path d="M48.6923 35.5311C49.1627 32.7785 48.9814 29.9498 48.1638 27.2846C47.3462 24.6195 45.9163 22.1962 43.9953 20.2202C42.0744 18.2442 39.7189 16.7737 37.1283 15.9331C34.5377 15.0924 31.7884 14.9065 29.1132 15.3911C27.1861 14.245 24.9443 13.788 22.7381 14.0914C20.5319 14.3948 18.4855 15.4415 16.9186 17.0681C15.3517 18.6946 14.3526 20.8093 14.0773 23.0819C13.8021 25.3544 14.2662 27.6568 15.3972 29.6293C14.9517 32.3674 15.1501 35.1753 15.9756 37.8184C16.8011 40.4614 18.2297 42.8626 20.1421 44.8211C22.0544 46.7797 24.3947 48.2386 26.9673 49.0758C29.5399 49.913 32.27 50.1042 34.9291 49.6333C36.8445 50.7601 39.0665 51.2086 41.2536 50.9099C43.4407 50.6112 45.472 49.5818 47.0353 47.9799C48.5986 46.3781 49.6075 44.2925 49.9068 42.0434C50.2062 39.7944 49.7795 37.5064 48.6923 35.5311V35.5311ZM25.2524 36.1309C26.9345 36.0384 27.4955 38.0979 28.7462 38.986C30.1336 39.9521 34.4898 40.9803 35.7684 37.9843C36.7135 35.3974 33.9367 35.004 31.2015 34.312C27.0156 33.3901 23.5111 32.279 23.5418 27.878C23.5228 23.6346 26.7875 21.8885 29.9281 21.5958C33.6626 21.2534 36.4188 22.0602 38.4622 23.7711C40.8443 25.8622 39.5585 28.1462 37.857 28.1944C35.445 28.2629 35.4779 24.9638 31.5 25.0154C28.0618 24.959 26.4877 28.367 30.0799 29.5599C35.1171 30.9288 39.1556 30.7624 40.4578 35.1332C41.4591 39.2203 39.0514 43.0319 33.178 43.5206C28.5096 43.7745 26.0516 42.4278 24.4539 40.7851C22.5167 38.5164 23.4296 36.231 25.2534 36.1309H25.2524Z" fill="white"/>
</svg>
