<svg width="64" height="64" viewBox="0 0 64 64" fill="none" xmlns="http://www.w3.org/2000/svg">
<path d="M32 64C49.6731 64 64 49.6731 64 32C64 14.3269 49.6731 0 32 0C14.3269 0 0 14.3269 0 32C0 49.6731 14.3269 64 32 64Z" fill="url(#paint0_linear_50_175)"/>
<path d="M13.3177 31.7225L34.8669 22.8439C36.994 21.9191 44.2079 18.9595 44.2079 18.9595C44.2079 18.9595 47.5374 17.6647 47.2599 20.8092C47.1675 22.104 46.4276 26.6358 45.6877 31.5375L43.3756 46.0578C43.3756 46.0578 43.1906 48.185 41.6183 48.5549C40.0461 48.9248 37.4565 47.2601 36.994 46.8902C36.6241 46.6127 30.0576 42.4508 27.653 40.4162C27.0056 39.8613 26.2657 38.7514 27.7455 37.4566C31.075 34.4046 35.0519 30.6127 37.4565 28.2081C38.5663 27.0982 39.6761 24.5086 35.0519 27.6532L22.0114 36.4393C22.0114 36.4393 20.5316 37.3641 17.7571 36.5318C14.9825 35.6994 11.7455 34.5896 11.7455 34.5896C11.7455 34.5896 9.52584 33.2023 13.3177 31.7225V31.7225Z" fill="white"/>
<defs>
<linearGradient id="paint0_linear_50_175" x1="42.6691" y1="10.6691" x2="26.6691" y2="48" gradientUnits="userSpaceOnUse">
<stop stop-color="#37AEE2"/>
<stop offset="1" stop-color="#1E96C8"/>
</linearGradient>
</defs>
</svg>
