<svg width="64" height="64" viewBox="0 0 64 64" fill="none" xmlns="http://www.w3.org/2000/svg">
<rect width="64" height="64" rx="32" fill="#25D366"/>
<path fill-rule="evenodd" clip-rule="evenodd" d="M32.5858 51.8527H32.5773C29.1599 51.8515 25.802 50.9941 22.8196 49.3673L11.9951 52.2068L14.8919 41.6259C13.105 38.5292 12.1648 35.0165 12.1663 31.4178C12.1708 20.1595 21.3308 11 32.5856 11C38.0479 11.0024 43.1747 13.1288 47.0298 16.9885C50.8849 20.8479 53.0069 25.978 53.0047 31.4339C53.0002 42.6896 43.8438 51.8481 32.5858 51.8527ZM23.3211 45.6708L23.9409 46.0387C26.5466 47.5849 29.5335 48.4031 32.5789 48.4043H32.5858C41.94 48.4043 49.5534 40.7908 49.5571 31.4327C49.5589 26.8979 47.7953 22.6339 44.591 19.426C41.3868 16.218 37.1256 14.4505 32.5925 14.4489C23.2311 14.4489 15.6176 22.0617 15.6139 31.419C15.6126 34.6258 16.5099 37.7489 18.2087 40.451L18.6123 41.0931L16.8978 47.3558L23.3211 45.6708ZM42.174 35.83C42.5298 36.002 42.7701 36.1181 42.8727 36.2894C43.0002 36.5021 43.0002 37.5237 42.5753 38.7156C42.1499 39.9074 40.1117 40.9951 39.1313 41.1415C38.2524 41.2729 37.14 41.3278 35.9179 40.9393C35.1768 40.7042 34.2266 40.3903 33.0093 39.8646C28.2262 37.7993 24.9939 33.1635 24.383 32.2873C24.3402 32.226 24.3102 32.183 24.2935 32.1607L24.2894 32.1552C24.0194 31.795 22.2103 29.3811 22.2103 26.8829C22.2103 24.5328 23.3647 23.3009 23.8961 22.7339C23.9325 22.6951 23.9659 22.6593 23.9959 22.6266C24.4636 22.1158 25.0164 21.9881 25.3565 21.9881C25.6966 21.9881 26.0371 21.9912 26.3343 22.0062C26.371 22.008 26.4091 22.0078 26.4486 22.0076C26.7459 22.0058 27.1166 22.0036 27.4822 22.882C27.6229 23.22 27.8287 23.7211 28.0458 24.2496C28.4849 25.3184 28.9699 26.4994 29.0553 26.6703C29.1829 26.9257 29.2679 27.2235 29.0978 27.5642C29.0723 27.6153 29.0487 27.6635 29.0261 27.7095C28.8984 27.9703 28.8044 28.1621 28.5876 28.4152C28.5024 28.5148 28.4143 28.6221 28.3262 28.7294C28.1507 28.9431 27.9751 29.1569 27.8223 29.3091C27.5669 29.5635 27.301 29.8396 27.5986 30.3504C27.8962 30.8612 28.9202 32.5318 30.4369 33.8848C32.0674 35.339 33.4844 35.9537 34.2027 36.2653C34.3429 36.3261 34.4566 36.3754 34.5399 36.4171C35.0499 36.6726 35.3475 36.6298 35.6452 36.2894C35.9428 35.9489 36.9206 34.7996 37.2607 34.2889C37.6007 33.7783 37.941 33.8633 38.4086 34.0335C38.8763 34.2039 41.3847 35.4381 41.8949 35.6934C41.9945 35.7433 42.0876 35.7883 42.174 35.83Z" fill="#FDFDFD"/>
</svg>
