<svg width="64" height="64" viewBox="0 0 64 64" fill="none" xmlns="http://www.w3.org/2000/svg">
<rect width="64" height="64" rx="32" fill="#2576D4"/>
<path fill-rule="evenodd" clip-rule="evenodd" d="M12 20.5C12 17.4624 14.4624 15 17.5 15H46.5C49.5376 15 52 17.4624 52 20.5V43.5C52 46.5376 49.5376 49 46.5 49H17.5C14.4624 49 12 46.5376 12 43.5V20.5ZM15.0159 20.2163C15.0054 20.3094 15 20.4041 15 20.5V43.5C15 43.5717 15.003 43.6427 15.0089 43.7128L25.9504 31.6946L15.0159 20.2163ZM17.0812 18.0349L28.9853 30.531L30.5566 31.6421C31.4216 32.2539 32.5784 32.2539 33.4434 31.6421L35.0147 30.531L46.9188 18.0349C46.7826 18.012 46.6427 18 46.5 18H17.5C17.3573 18 17.2174 18.012 17.0812 18.0349ZM48.9841 20.2163L38.0496 31.6946L48.9911 43.7128C48.997 43.6427 49 43.5717 49 43.5V20.5C49 20.4041 48.9946 20.3094 48.9841 20.2163ZM46.9752 45.9549L35.7834 33.6617L35.1755 34.0916C33.2724 35.4374 30.7276 35.4374 28.8245 34.0916L28.2166 33.6617L17.0248 45.9549C17.1786 45.9845 17.3375 46 17.5 46H46.5C46.6625 46 46.8214 45.9845 46.9752 45.9549Z" fill="white"/>
</svg>
