<svg width="64" height="64" viewBox="0 0 64 64" fill="none" xmlns="http://www.w3.org/2000/svg">
<rect width="64" height="64" rx="32" fill="#8950A0"/>
<path d="M48.2583 14.325C47.1601 13.3139 42.7141 10.0766 32.8036 10.0323C32.8036 10.0323 21.1217 9.32276 15.4269 14.5556C12.2563 17.7307 11.1404 22.3693 11.0252 28.1343C10.9101 33.8904 10.7595 44.6842 21.1483 47.611H21.1572L21.1483 52.0722C21.1483 52.0722 21.0863 53.8815 22.2731 54.2452C23.7078 54.6886 24.5581 53.3139 25.9308 51.8328C26.6837 51.0168 27.7199 49.8283 28.5081 48.9148C35.6111 49.509 41.0756 48.1432 41.6956 47.9392C43.1303 47.4691 51.2518 46.4314 52.5714 35.6376C53.9354 24.5334 51.9072 17.5001 48.2583 14.325ZM49.4628 34.8571C48.3468 43.8682 41.7664 44.4359 40.5531 44.8261C40.0394 44.9946 35.2391 46.192 29.1989 45.7928C29.1989 45.7928 24.6998 51.2297 23.3004 52.6399C23.079 52.8616 22.8222 52.9503 22.6539 52.9059C22.4148 52.8438 22.3439 52.56 22.3528 52.1432C22.3528 51.5401 22.3882 44.7197 22.3882 44.7197C22.3794 44.7197 22.3794 44.7197 22.3882 44.7197C13.5936 42.2806 14.1073 33.0922 14.2047 28.2851C14.3022 23.478 15.2055 19.5312 17.8891 16.8793C22.6982 12.5157 32.6264 13.1631 32.6264 13.1631C41.0047 13.1986 45.0168 15.7263 45.9467 16.5689C49.0377 19.2296 50.6141 25.5711 49.4628 34.8571Z" fill="white"/>
<path d="M36.8864 28.4536C36.5941 28.4536 36.3462 28.223 36.3284 27.9214C36.231 26.0145 35.3365 25.0833 33.5121 24.9857C33.2021 24.968 32.9629 24.7019 32.9807 24.3915C32.9984 24.0811 33.2641 23.8416 33.5741 23.8593C35.983 23.9924 37.3292 25.376 37.4532 27.8593C37.4709 28.1697 37.2318 28.4358 36.9218 28.4447C36.9041 28.4536 36.8953 28.4536 36.8864 28.4536Z" fill="white"/>
<path d="M39.756 29.4117H39.7472C39.4372 29.4028 39.1892 29.1456 39.1981 28.8352C39.2423 26.9194 38.6932 25.3673 37.5242 24.0902C36.3639 22.813 34.7609 22.1212 32.6442 21.9704C32.3342 21.9438 32.1039 21.6778 32.1305 21.3673C32.1571 21.0569 32.4228 20.8263 32.7328 20.8529C35.124 21.0303 37.0105 21.864 38.3567 23.3363C39.7117 24.8174 40.3671 26.6711 40.3228 28.8618C40.314 29.1722 40.0571 29.4117 39.756 29.4117Z" fill="white"/>
<path d="M42.6963 30.5644C42.3863 30.5644 42.1383 30.3161 42.1383 30.0057C42.1117 26.5733 41.1287 23.9569 39.1271 21.9968C37.152 20.0633 34.6456 19.0788 31.6964 19.0522C31.3864 19.0522 31.1384 18.795 31.1384 18.4846C31.1384 18.1742 31.3953 17.9258 31.6964 17.9258C34.9468 17.9524 37.71 19.0434 39.8976 21.1897C42.094 23.336 43.2188 26.2984 43.2542 29.9879C43.2631 30.3072 43.0151 30.5644 42.6963 30.5644C42.7051 30.5644 42.7051 30.5644 42.6963 30.5644Z" fill="white"/>
<path d="M33.6449 35.3981C33.6449 35.3981 34.4331 35.469 34.8582 34.9457L35.6819 33.908C36.0804 33.3936 37.0458 33.0655 37.9846 33.5888C38.5071 33.8814 39.4548 34.4668 40.0393 34.9014C40.6681 35.3626 41.9435 36.4269 41.9524 36.4358C42.5635 36.9502 42.7052 37.7041 42.2889 38.5112C42.2889 38.5112 42.2889 38.52 42.2889 38.5289C41.8638 39.2828 41.2881 39.9923 40.5707 40.6486C40.5619 40.6486 40.5619 40.6575 40.553 40.6575C39.9596 41.1542 39.3751 41.438 38.8083 41.5001C38.7374 41.5178 38.6577 41.5178 38.5514 41.5178C38.3034 41.5178 38.0555 41.4823 37.8075 41.4025L37.7898 41.3759C36.9041 41.1276 35.4339 40.5067 32.9895 39.1497C31.3953 38.2717 30.0757 37.3759 28.9509 36.4801C28.3575 36.01 27.7553 35.4868 27.1353 34.8659C27.1176 34.8482 27.091 34.8216 27.0733 34.8038C27.0556 34.7861 27.029 34.7595 27.0113 34.7417C26.9936 34.724 26.967 34.6974 26.9493 34.6797C26.9316 34.6619 26.905 34.6353 26.8873 34.6176C26.2762 33.9967 25.7448 33.3936 25.2754 32.7994C24.3809 31.6819 23.4864 30.3515 22.6096 28.755C21.2545 26.2983 20.6346 24.826 20.3866 23.948L20.36 23.9302C20.2803 23.6819 20.2449 23.4335 20.2449 23.1852C20.2449 23.0788 20.2449 22.9989 20.2626 22.928C20.3334 22.3515 20.6168 21.775 21.104 21.1808C21.104 21.1719 21.1128 21.1719 21.1128 21.163C21.7682 20.4358 22.4767 19.8681 23.2295 19.4424C23.2295 19.4424 23.2384 19.4424 23.2473 19.4424C24.0443 19.0256 24.7972 19.1675 25.3197 19.7794C25.3197 19.7794 26.3913 21.0655 26.8519 21.6952C27.2859 22.2894 27.8704 23.2295 28.1627 23.7528C28.6852 24.693 28.3575 25.6597 27.8438 26.0588L26.8076 26.8837C26.2851 27.3094 26.3559 28.0987 26.3559 28.0987C26.3559 28.0987 27.8881 33.9347 33.6449 35.3981Z" fill="white"/>
</svg>
